{
  "accessors": [
    {
      "bufferView": 2,
      "componentType": 5126,
      "count": 1500,
      "max": [
        0.5303130149841309,
        0.019872400909662247,
        0.012349399738013744
      ],
      "min": [
        -0.5928120017051697,
        -1.0,
        -0.34820500016212463
      ],
      "type": "VEC3"
    },
    {
      "bufferView": 2,
      "byteOffset": 18000,
      "componentType": 5126,
      "count": 1500,
      "max": [
        1.0,
        1.0,
        0.9997144341468811
      ],
      "min": [
        -1.0,
        -1.0,
        -0.9997144341468811
      ],
      "type": "VEC3"
    },
    {
      "bufferView": 3,
      "componentType": 5126,
      "count": 1500,
      "max": [
        0.7545097470283508,
        0.7285319566726685,
        1.0,
        1.0
      ],
      "min": [
        -0.7546678781509399,
        -1.0,
        -1.0,
        1.0
      ],
      "type": "VEC4"
    },
    {
      "bufferView": 1,
      "componentType": 5126,
      "count": 1500,
      "max": [
        1.0,
        1.0
      ],
      "min": [
        0.0,
        0.0
      ],
      "type": "VEC2"
    },
    {
      "bufferView": 0,
      "componentType": 5125,
      "count": 2268,
      "type": "SCALAR"
    },
    {
      "bufferView": 2,
      "byteOffset": 36000,
      "componentType": 5126,
      "count": 931,
      "max": [
        0.30807599425315857,
        1.0,
        0.38945499062538147
      ],
      "min": [
        -0.5077409744262695,
        -0.06834270060062408,
        -0.24683399498462677
      ],
      "type": "VEC3"
    },
    {
      "bufferView": 2,
      "byteOffset": 47172,
      "componentType": 5126,
      "count": 931,
      "max": [
        0.9993373155593872,
        0.998738706111908,
        0.9993618726730347
      ],
      "min": [
        -0.9993373155593872,
        -0.9999995231628418,
        -0.999362587928772
      ],
      "type": "VEC3"
    },
    {
      "bufferView": 3,
      "byteOffset": 24000,
      "componentType": 5126,
      "count": 931,
      "max": [
        0.9999943971633911,
        0.8643792867660522,
        0.9875994920730591,
        1.0
      ],
      "min": [
        -0.9831749796867371,
        -0.9993805885314941,
        -0.9986764192581177,
        1.0
      ],
      "type": "VEC4"
    },
    {
      "bufferView": 1,
      "byteOffset": 12000,
      "componentType": 5126,
      "count": 931,
      "max": [
        1.0,
        1.0
      ],
      "min": [
        0.0,
        0.0
      ],
      "type": "VEC2"
    },
    {
      "bufferView": 0,
      "byteOffset": 9072,
      "componentType": 5125,
      "count": 4128,
      "type": "SCALAR"
    },
    {
      "bufferView": 2,
      "byteOffset": 58344,
      "componentType": 5126,
      "count": 986,
      "max": [
        0.5928120017051697,
        -0.2630549967288971,
        0.05557600036263466
      ],
      "min": [
        0.12846499681472778,
        -0.37456798553466797,
        -0.38945499062538147
      ],
      "type": "VEC3"
    },
    {
      "bufferView": 2,
      "byteOffset": 70176,
      "componentType": 5126,
      "count": 986,
      "max": [
        1.0,
        1.0,
        1.0
      ],
      "min": [
        -1.0,
        -1.0,
        -1.0
      ],
      "type": "VEC3"
    },
    {
      "bufferView": 3,
      "byteOffset": 38896,
      "componentType": 5126,
      "count": 986,
      "max": [
        0.9997168183326721,
        1.0,
        1.0,
        1.0
      ],
      "min": [
        -0.9997168183326721,
        -1.0,
        -0.958136796951294,
        1.0
      ],
      "type": "VEC4"
    },
    {
      "bufferView": 1,
      "byteOffset": 19448,
      "componentType": 5126,
      "count": 986,
      "max": [
        1.0,
        1.0
      ],
      "min": [
        0.0,
        0.0
      ],
      "type": "VEC2"
    },
    {
      "bufferView": 0,
      "byteOffset": 25584,
      "componentType": 5125,
      "count": 1890,
      "type": "SCALAR"
    },
    {
      "bufferView": 2,
      "byteOffset": 82008,
      "componentType": 5126,
      "count": 956,
      "max": [
        0.5928120017051697,
        -0.397255003452301,
        0.05557600036263466
      ],
      "min": [
        0.12846499681472778,
        -0.5087689757347107,
        -0.38945499062538147
      ],
      "type": "VEC3"
    },
    {
      "bufferView": 2,
      "byteOffset": 93480,
      "componentType": 5126,
      "count": 956,
      "max": [
        1.0,
        1.0,
        1.0
      ],
      "min": [
        -1.0,
        -1.0,
        -1.0
      ],
      "type": "VEC3"
    },
    {
      "bufferView": 3,
      "byteOffset": 54672,
      "componentType": 5126,
      "count": 956,
      "max": [
        0.9997168183326721,
        1.0,
        1.0,
        1.0
      ],
      "min": [
        -0.9997168183326721,
        -1.0,
        -0.958136796951294,
        1.0
      ],
      "type": "VEC4"
    },
    {
      "bufferView": 1,
      "byteOffset": 27336,
      "componentType": 5126,
      "count": 956,
      "max": [
        1.0,
        1.0
      ],
      "min": [
        0.0,
        0.0
      ],
      "type": "VEC2"
    },
    {
      "bufferView": 0,
      "byteOffset": 33144,
      "componentType": 5125,
      "count": 1890,
      "type": "SCALAR"
    },
    {
      "bufferView": 2,
      "byteOffset": 104952,
      "componentType": 5126,
      "count": 944,
      "max": [
        0.5928120017051697,
        -0.5314549803733826,
        0.05557600036263466
      ],
      "min": [
        0.12846499681472778,
        -0.642969012260437,
        -0.38945499062538147
      ],
      "type": "VEC3"
    },
    {
      "bufferView": 2,
      "byteOffset": 116280,
      "componentType": 5126,
      "count": 944,
      "max": [
        1.0,
        1.0,
        1.0
      ],
      "min": [
        -1.0,
        -1.0,
        -1.0
      ],
      "type": "VEC3"
    },
    {
      "bufferView": 3,
      "byteOffset": 69968,
      "componentType": 5126,
      "count": 944,
      "max": [
        0.9997168183326721,
        1.0,
        1.0,
        1.0
      ],
      "min": [
        -0.9997168183326721,
        -1.0,
        -0.958136796951294,
        1.0
      ],
      "type": "VEC4"
    },
    {
      "bufferView": 1,
      "byteOffset": 34984,
      "componentType": 5126,
      "count": 944,
      "max": [
        1.0,
        1.0
      ],
      "min": [
        0.0,
        0.0
      ],
      "type": "VEC2"
    },
    {
      "bufferView": 0,
      "byteOffset": 40704,
      "componentType": 5125,
      "count": 1890,
      "type": "SCALAR"
    },
    {
      "bufferView": 2,
      "byteOffset": 127608,
      "componentType": 5126,
      "count": 915,
      "max": [
        0.5928120017051697,
        -0.6656559705734253,
        0.05557600036263466
      ],
      "min": [
        0.12846499681472778,
        -0.7771689891815186,
        -0.38945499062538147
      ],
      "type": "VEC3"
    },
    {
      "bufferView": 2,
      "byteOffset": 138588,
      "componentType": 5126,
      "count": 915,
      "max": [
        1.0,
        1.0,
        1.0
      ],
      "min": [
        -1.0,
        -1.0,
        -1.0
      ],
      "type": "VEC3"
    },
    {
      "bufferView": 3,
      "byteOffset": 85072,
      "componentType": 5126,
      "count": 915,
      "max": [
        0.9997168183326721,
        1.0,
        1.0,
        1.0
      ],
      "min": [
        -0.9997168183326721,
        -1.0,
        -0.958136796951294,
        1.0
      ],
      "type": "VEC4"
    },
    {
      "bufferView": 1,
      "byteOffset": 42536,
      "componentType": 5126,
      "count": 915,
      "max": [
        1.0,
        1.0
      ],
      "min": [
        0.0,
        0.0
      ],
      "type": "VEC2"
    },
    {
      "bufferView": 0,
      "byteOffset": 48264,
      "componentType": 5125,
      "count": 1890,
      "type": "SCALAR"
    }
  ],
  "asset": {
    "extras": {
      "author": "Wolf (https://sketchfab.com/wolfmic)",
      "license": "CC-BY-4.0 (http://creativecommons.org/licenses/by/4.0/)",
      "source": "https://sketchfab.com/3d-models/padlock-808d6f532c5b4b28bccd4e7a21003176",
      "title": "padlock"
    },
    "generator": "Sketchfab-12.67.0",
    "version": "2.0"
  },
  "bufferViews": [
    {
      "buffer": 0,
      "byteLength": 55824,
      "name": "floatBufferViews",
      "target": 34963
    },
    {
      "buffer": 0,
      "byteLength": 49856,
      "byteOffset": 55824,
      "byteStride": 8,
      "name": "floatBufferViews",
      "target": 34962
    },
    {
      "buffer": 0,
      "byteLength": 149568,
      "byteOffset": 105680,
      "byteStride": 12,
      "name": "floatBufferViews",
      "target": 34962
    },
    {
      "buffer": 0,
      "byteLength": 99712,
      "byteOffset": 255248,
      "byteStride": 16,
      "name": "floatBufferViews",
      "target": 34962
    }
  ],
  "buffers": [
    {
      "byteLength": 354960,
      "uri": "scene.bin"
    }
  ],
  "images": [
    {
      "uri": "textures/MAT_CadenasDigit_baseColor.jpeg"
    },
    {
      "uri": "textures/MAT_CadenasDigit_metallicRoughness.png"
    },
    {
      "uri": "textures/MAT_CadenasDigit_normal.jpeg"
    },
    {
      "uri": "textures/MAT_CadenasBoucle_baseColor.jpeg"
    },
    {
      "uri": "textures/MAT_CadenasBoucle_metallicRoughness.png"
    },
    {
      "uri": "textures/MAT_CadenasBoucle_normal.jpeg"
    },
    {
      "uri": "textures/MAT_Cadenas_Body_baseColor.jpeg"
    },
    {
      "uri": "textures/MAT_Cadenas_Body_metallicRoughness.png"
    },
    {
      "uri": "textures/MAT_Cadenas_Body_normal.jpeg"
    }
  ],
  "materials": [
    {
      "doubleSided": true,
      "name": "MAT_CadenasDigit",
      "normalTexture": {
        "index": 2
      },
      "pbrMetallicRoughness": {
        "baseColorTexture": {
          "index": 0
        },
        "metallicRoughnessTexture": {
          "index": 1
        }
      }
    },
    {
      "doubleSided": true,
      "name": "MAT_CadenasBoucle",
      "normalTexture": {
        "index": 5
      },
      "pbrMetallicRoughness": {
        "baseColorTexture": {
          "index": 3
        },
        "metallicRoughnessTexture": {
          "index": 4
        }
      }
    },
    {
      "doubleSided": true,
      "name": "MAT_Cadenas_Body",
      "normalTexture": {
        "index": 8
      },
      "pbrMetallicRoughness": {
        "baseColorTexture": {
          "index": 6
        },
        "metallicRoughnessTexture": {
          "index": 7
        }
      }
    }
  ],
  "meshes": [
    {
      "name": "defaultMaterial",
      "primitives": [
        {
          "attributes": {
            "NORMAL": 1,
            "POSITION": 0,
            "TANGENT": 2,
            "TEXCOORD_0": 3
          },
          "indices": 4,
          "material": 2,
          "mode": 4
        }
      ]
    },
    {
      "name": "defaultMaterial",
      "primitives": [
        {
          "attributes": {
            "NORMAL": 6,
            "POSITION": 5,
            "TANGENT": 7,
            "TEXCOORD_0": 8
          },
          "indices": 9,
          "material": 1,
          "mode": 4
        }
      ]
    },
    {
      "name": "defaultMaterial",
      "primitives": [
        {
          "attributes": {
            "NORMAL": 11,
            "POSITION": 10,
            "TANGENT": 12,
            "TEXCOORD_0": 13
          },
          "indices": 14,
          "material": 0,
          "mode": 4
        }
      ]
    },
    {
      "name": "defaultMaterial",
      "primitives": [
        {
          "attributes": {
            "NORMAL": 16,
            "POSITION": 15,
            "TANGENT": 17,
            "TEXCOORD_0": 18
          },
          "indices": 19,
          "material": 0,
          "mode": 4
        }
      ]
    },
    {
      "name": "defaultMaterial",
      "primitives": [
        {
          "attributes": {
            "NORMAL": 21,
            "POSITION": 20,
            "TANGENT": 22,
            "TEXCOORD_0": 23
          },
          "indices": 24,
          "material": 0,
          "mode": 4
        }
      ]
    },
    {
      "name": "defaultMaterial",
      "primitives": [
        {
          "attributes": {
            "NORMAL": 26,
            "POSITION": 25,
            "TANGENT": 27,
            "TEXCOORD_0": 28
          },
          "indices": 29,
          "material": 0,
          "mode": 4
        }
      ]
    }
  ],
  "nodes": [
    {
      "children": [
        1
      ],
      "matrix": [
        0.5284736156463623,
        0.0,
        0.0,
        0.0,
        0.0,
        1.1734471519949936e-16,
        -0.5284736156463623,
        0.0,
        0.0,
        0.5284736156463623,
        1.1734471519949936e-16,
        0.0,
        0.0,
        0.0,
        0.0,
        1.0
      ],
      "name": "Sketchfab_model"
    },
    {
      "children": [
        2,
        4,
        6,
        8,
        10,
        12
      ],
      "matrix": [
        1.0,
        0.0,
        0.0,
        0.0,
        0.0,
        -4.371139006309477e-08,
        0.999999999999999,
        0.0,
        0.0,
        -0.999999999999999,
        -4.371139006309477e-08,
        0.0,
        0.0,
        0.0,
        0.0,
        1.0
      ],
      "name": "Collada visual scene group"
    },
    {
      "children": [
        3
      ],
      "name": "Cadenas_Body_Cube.001"
    },
    {
      "mesh": 0,
      "name": "defaultMaterial"
    },
    {
      "children": [
        5
      ],
      "name": "Cadenas_Boucle_Circle.001"
    },
    {
      "mesh": 1,
      "name": "defaultMaterial"
    },
    {
      "children": [
        7
      ],
      "name": "Cadenas_Digit0_Circle.005"
    },
    {
      "mesh": 2,
      "name": "defaultMaterial"
    },
    {
      "children": [
        9
      ],
      "name": "Cadenas_Digit1_Circle.005"
    },
    {
      "mesh": 3,
      "name": "defaultMaterial"
    },
    {
      "children": [
        11
      ],
      "name": "Cadenas_Digit2_Circle.005"
    },
    {
      "mesh": 4,
      "name": "defaultMaterial"
    },
    {
      "children": [
        13
      ],
      "name": "Cadenas_Digit3_Circle.005"
    },
    {
      "mesh": 5,
      "name": "defaultMaterial"
    }
  ],
  "samplers": [
    {
      "magFilter": 9729,
      "minFilter": 9987,
      "wrapS": 10497,
      "wrapT": 10497
    }
  ],
  "scene": 0,
  "scenes": [
    {
      "name": "Sketchfab_Scene",
      "nodes": [
        0
      ]
    }
  ],
  "textures": [
    {
      "sampler": 0,
      "source": 0
    },
    {
      "sampler": 0,
      "source": 1
    },
    {
      "sampler": 0,
      "source": 2
    },
    {
      "sampler": 0,
      "source": 3
    },
    {
      "sampler": 0,
      "source": 4
    },
    {
      "sampler": 0,
      "source": 5
    },
    {
      "sampler": 0,
      "source": 6
    },
    {
      "sampler": 0,
      "source": 7
    },
    {
      "sampler": 0,
      "source": 8
    }
  ]
}
